<?xml version="1.0" encoding="UTF-8" standalone="no"?>
<svg
   width="90mm"
   height="12mm"
   viewBox="0 0 255.1181 34.015746"
   version="1.1"
   id="svg55"
   sodipodi:docname="logo.svg"
   inkscape:version="1.2.1 (9c6d41e, 2022-07-14)"
   xmlns:inkscape="http://www.inkscape.org/namespaces/inkscape"
   xmlns:sodipodi="http://sodipodi.sourceforge.net/DTD/sodipodi-0.dtd"
   xmlns="http://www.w3.org/2000/svg"
   xmlns:svg="http://www.w3.org/2000/svg">
  <defs
     id="defs59">
    <clipPath
       id="clip-0">
      <path
         clip-rule="nonzero"
         d="m 768,93 h 22.86719 v 47 H 768 Z m 0,0"
         id="path77" />
    </clipPath>
  </defs>
  <sodipodi:namedview
     id="namedview57"
     pagecolor="#ffffff"
     bordercolor="#000000"
     borderopacity="0.25"
     inkscape:showpageshadow="2"
     inkscape:pageopacity="0.0"
     inkscape:pagecheckerboard="0"
     inkscape:deskcolor="#d1d1d1"
     inkscape:document-units="pt"
     showgrid="false"
     inkscape:zoom="2.1718857"
     inkscape:cx="167.13587"
     inkscape:cy="21.640181"
     inkscape:window-width="1309"
     inkscape:window-height="456"
     inkscape:window-x="0"
     inkscape:window-y="25"
     inkscape:window-maximized="0"
     inkscape:current-layer="svg55"
     showguides="true">
    <sodipodi:guide
       position="-17.611424,56.806998"
       orientation="0.70710678,-0.70710678"
       id="guide909"
       inkscape:locked="false" />
    <sodipodi:guide
       position="5.6692911,12.260458"
       orientation="-1,0"
       id="guide911"
       inkscape:locked="false"
       inkscape:label=""
       inkscape:color="rgb(0,134,229)" />
    <sodipodi:guide
       position="249.44881,31.253169"
       orientation="-1,0"
       id="guide913"
       inkscape:locked="false"
       inkscape:label=""
       inkscape:color="rgb(0,134,229)" />
  </sodipodi:namedview>
  <g
     id="g798"
     transform="matrix(0.17556145,0,0,0.17556145,-9.037247,-11.606928)">
    <path
       fill-rule="nonzero"
       fill="#00b6c9"
       fill-opacity="1"
       d="M 105.19922,92.125 H 83.621094 l 36.007816,62.36328 10.78906,-18.6875 z m 0,0"
       id="path9" />
    <path
       fill-rule="nonzero"
       fill="#00b6c9"
       fill-opacity="1"
       d="m 190.79687,92.125 -42.80078,74.12891 -10.78515,18.68359 28.24218,48.91797 L 247.28125,92.125 Z m 0,0"
       id="path11" />
    <path
       fill-rule="nonzero"
       fill="#003146"
       fill-opacity="1"
       d="m 308.39062,151.20312 v -17.87109 h -17.1875 v 17.87109 h -6.375 v -40.0664 h 6.375 v 16.78906 h 17.1875 v -16.78906 h 6.375 v 40.0664 z m 0,0"
       id="path13" />
    <path
       fill-rule="nonzero"
       fill="#003146"
       fill-opacity="1"
       d="m 342.53516,133.16016 -11.60938,11.49609 c 1.19531,1.30859 2.90234,1.9375 4.83594,1.9375 4.38281,0 7.28515,-3.47266 7.28515,-9.78906 0,-1.3125 -0.17187,-2.5625 -0.51171,-3.64453 m -13.48829,7.625 11.60938,-11.55079 c -1.30859,-1.36718 -2.90234,-2.10546 -5.0625,-2.10546 -4.38281,0 -7.17188,3.64062 -7.17188,9.67578 0,1.47656 0.22657,2.84375 0.625,3.98047 m -8.82031,8.76562 4.15235,-4.15234 c -1.3086,-2.33594 -1.98829,-5.29297 -1.98829,-8.59375 0,-8.87891 5.00782,-14.96875 13.3711,-14.96875 3.64453,0 6.71484,1.30859 8.9375,3.41406 l 3.98047,-3.92578 2.90625,2.90234 -4.38282,4.32422 c 1.25,2.27734 1.875,5.12109 1.875,8.25391 0,8.875 -5.0625,14.96484 -13.3164,14.96484 -3.64063,0 -6.60156,-1.13672 -8.82031,-3.12891 l -3.8711,3.75782 c -0.96484,-0.96875 -1.93359,-1.87891 -2.84375,-2.84766"
       id="path15" />
    <path
       fill-rule="nonzero"
       fill="#003146"
       fill-opacity="1"
       d="m 368.31641,127.07031 c -4.4961,0 -7.45704,3.47266 -7.45704,9.73438 0,6.3164 2.96094,9.78906 7.45704,9.78906 4.4375,0 7.11328,-3.47266 7.11328,-9.78906 0,-6.26172 -2.67578,-9.73438 -7.11328,-9.73438 m 13.3164,22.9375 c 0,8.58985 -5.6914,12.97266 -13.3164,12.97266 -6.48829,0 -11.26954,-2.78516 -12.52344,-7.51172 l 6.03515,-1.64844 c 0.625,2.33203 3.35547,3.98438 6.48829,3.98438 4.77734,0 7.11328,-3.2461 7.11328,-7.79688 v -2.16406 c -1.14063,2.10547 -4.72266,3.92578 -8.08203,3.92578 -7.22657,0 -12.69141,-6.08984 -12.69141,-14.96484 0,-8.82422 5.17969,-14.96875 12.69141,-14.96875 3.8125,0 7.05468,2.27734 8.08203,4.26953 l 0.5664,-3.70313 h 5.63672 z m 0,0"
       id="path17" />
    <path
       fill-rule="nonzero"
       fill="#003146"
       fill-opacity="1"
       d="m 387.83203,142.72266 c 2.05078,-0.39844 4.04297,-0.79688 6.03516,-1.14063 0.39843,2.27734 1.76562,5.00781 6.375,5.00781 1.02343,0 6.08593,-0.39453 6.08593,-4.03906 0,-6.88672 -17.64062,0.22656 -17.64062,-12.12109 0,-4.89453 4.89453,-8.59375 11.04297,-8.59375 6.14453,0 11.3789,2.5625 12.23437,8.99218 -2.05078,0.33985 -4.04297,0.73829 -6.03515,1.13672 -0.39453,-3.58593 -2.61719,-4.89453 -6.03125,-4.89453 -3.01563,0 -5.06641,1.59375 -5.06641,3.35938 0,2.33203 2.16406,2.95703 5.57813,3.30078 6.48828,0.68359 12.00781,2.10547 12.00781,8.82031 0,6.03125 -5.29297,9.21875 -12.17578,9.21875 -7.39844,0 -11.60938,-3.86719 -12.41016,-9.04687"
       id="path19" />
    <path
       fill-rule="nonzero"
       fill="#003146"
       fill-opacity="1"
       d="m 436.43359,122.40234 h 8.36719 l -12.51953,11.78125 c 2.10547,2.67578 11.55078,14.39844 13.71484,17.01563 h -7.33984 l -10.53125,-13.03125 -2.84375,2.73047 v 10.30078 h -6.20313 v -40.0625 h 6.20313 v 21.91015 z m 0,0"
       id="path21" />
    <path
       fill-rule="nonzero"
       fill="#003146"
       fill-opacity="1"
       d="m 455.5,138.11328 c 0,5.91797 1.99219,8.42188 6.48828,8.47656 4.32422,0 6.37109,-2.78515 6.37109,-8.47656 v -15.71094 h 6.14844 v 28.79688 h -5.51953 l -0.62891,-3.07031 c -0.96484,1.64843 -3.98437,3.64062 -7.85156,3.64062 -8.02734,0 -11.15625,-4.4375 -11.15625,-13.65625 V 122.40234 H 455.5 Z m 0,0"
       id="path23" />
    <path
       fill-rule="nonzero"
       fill="#003146"
       fill-opacity="1"
       d="m 482.92969,111.13672 h 6.14453 v 40.0625 h -6.14453 z m 0,0"
       id="path25" />
    <path
       fill-rule="nonzero"
       fill="#003146"
       fill-opacity="1"
       d="m 515.36719,134.01562 c -0.17188,-4.26953 -2.21875,-6.99999 -6.42969,-6.99999 -4.09766,0 -6.42969,3.41406 -6.60156,6.99999 z m 1.30859,7.16797 c 1.87891,0.51563 3.75781,1.08203 5.63672,1.65235 -1.30859,4.15625 -5.23828,8.93359 -13.09375,8.93359 -7.90625,0 -13.54297,-6.08984 -13.54297,-14.96484 0,-8.87891 5.23828,-14.96875 13.26172,-14.96875 7.96875,0 12.97656,5.34765 12.97656,14.05468 0,0.85547 0,1.76563 -0.11328,2.73438 h -19.75 c 0.11328,4.21094 3.01563,7.96484 7.16797,7.96484 3.01953,0 5.97656,-1.42187 7.45703,-5.40625"
       id="path27" />
    <path
       fill-rule="nonzero"
       fill="#003146"
       fill-opacity="1"
       d="m 548.43359,135.55078 c 0,-5.91797 -1.99218,-8.48047 -6.48828,-8.48047 -4.32422,0 -6.42969,2.78906 -6.42969,8.48047 v 15.64844 h -6.14843 v -28.79688 h 5.57812 l 0.57031,3.13282 c 0.96485,-1.76563 4.03907,-3.69922 7.625,-3.69922 8.25,0.0547 11.38282,4.49609 11.38282,13.71484 v 15.64844 h -6.08985 z m 0,0"
       id="path29" />
    <path
       fill-rule="nonzero"
       fill="#003146"
       fill-opacity="1"
       d="m 298.14453,189.67187 c -4.49609,0 -7.11328,3.47266 -7.11328,9.73047 0,6.32032 2.61719,9.78907 7.11328,9.78907 4.44141,0 7.28516,-3.46875 7.28516,-9.78907 0,-6.25781 -2.84375,-9.73047 -7.28516,-9.73047 m -13.31641,-4.66796 h 5.63282 l 0.57031,3.64453 c 1.02734,-1.59375 4.21094,-4.21094 8.36719,-4.21094 7.17187,0 12.29297,6.14453 12.29297,14.96484 0,8.87891 -4.55469,14.96875 -12.29297,14.96875 -3.8711,0 -7.23047,-2.33203 -8.36719,-4.03906 v 14.73828 h -6.20313 z m 0,0"
       id="path31" />
    <path
       fill-rule="nonzero"
       fill="#003146"
       fill-opacity="1"
       d="m 329.67187,179.99609 c 1.53907,0 2.73438,-1.19531 2.73438,-2.67578 0,-1.47656 -1.19531,-2.73047 -2.73438,-2.73047 -1.47656,0 -2.73046,1.25391 -2.73046,2.73047 0,1.48047 1.2539,2.67578 2.73046,2.67578 m 0,-8.02343 c 3.01563,0 5.46485,2.44531 5.46485,5.34765 0,3.01953 -2.44922,5.35156 -5.46485,5.35156 -2.95703,0 -5.46093,-2.33203 -5.46093,-5.35156 0,-2.90234 2.5039,-5.34765 5.46093,-5.34765 m 6.14844,30.67578 v -1.42188 h -6.77344 c -5.0664,0 -6.08984,2.5586 -6.08984,3.98047 0,1.9375 1.30859,3.98438 5.06641,3.98438 5.00781,0 7.79687,-3.41407 7.79687,-6.54297 m -12.00781,-7.73828 c -1.99219,-0.34375 -4.04297,-0.80079 -6.08984,-1.14063 0.625,-6.375 5.86328,-9.33203 11.89453,-9.33203 8.13672,0 12.34765,3.98437 12.34765,11.83594 v 10.01562 c 0,1.70703 0.34375,2.67578 1.53907,2.67578 0.45312,0 1.1914,-0.11328 1.47656,-0.22656 v 5.00781 c -1.76172,0.45313 -2.90235,0.45313 -3.64063,0.45313 -2.95703,0 -4.55078,-1.76563 -5.00781,-4.09766 -1.13672,1.42578 -4.15625,4.15625 -8.99219,4.26953 -6.66015,0 -10.64453,-3.69922 -10.64453,-9.16406 0,-4.49219 4.15625,-8.58984 11.72656,-8.58984 h 7.39844 v -1.70703 c 0,-2.22266 -0.91406,-5.23829 -6.20312,-5.23829 -3.53125,0 -5.69141,1.76563 -5.80469,5.23829"
       id="path33" />
    <path
       fill-rule="nonzero"
       fill="#003146"
       fill-opacity="1"
       d="m 380.03906,173.73828 h 6.71485 l -14.45704,40.0625 h -6.14453 l -14.34375,-40.0625 h 6.60157 l 10.8125,30.84375 z m 0,0"
       id="path35" />
    <path
       fill-rule="nonzero"
       fill="#003146"
       fill-opacity="1"
       d="m 405.70312,196.61719 c -0.17187,-4.26953 -2.21875,-7 -6.42968,-7 -4.09766,0 -6.4336,3.41406 -6.60157,7 z m 1.3086,7.16797 c 1.8789,0.51171 3.7539,1.08203 5.63281,1.64843 -1.30859,4.15625 -5.23437,8.9375 -13.08594,8.9375 -7.91015,0 -13.54687,-6.08984 -13.54687,-14.96875 0,-8.875 5.23437,-14.96484 13.26172,-14.96484 7.96484,0 12.97656,5.34766 12.97656,14.05469 0,0.85547 0,1.76562 -0.11719,2.73047 h -19.74609 c 0.11328,4.21093 3.01562,7.96875 7.17187,7.96875 3.01563,0 5.97266,-1.42188 7.45313,-5.40625"
       id="path37" />
    <path
       fill-rule="nonzero"
       fill="#003146"
       fill-opacity="1"
       d="m 417.42578,205.32422 c 2.05078,-0.39844 4.03906,-0.79688 6.03125,-1.14063 0.39844,2.27735 1.76563,5.00782 6.375,5.00782 1.02344,0 6.08984,-0.39844 6.08984,-4.03907 0,-6.88672 -17.64062,0.22657 -17.64062,-12.12109 0,-4.89453 4.89453,-8.59375 11.03906,-8.59375 6.14453,0 11.38281,2.55859 12.23438,8.98828 -2.04688,0.34375 -4.03907,0.74219 -6.03125,1.14063 -0.39844,-3.58594 -2.61719,-4.89454 -6.03516,-4.89454 -3.01172,0 -5.0625,1.59375 -5.0625,3.35938 0,2.33203 2.16406,2.95703 5.57813,3.30078 6.48437,0.67969 12.00781,2.10547 12.00781,8.82031 0,6.03125 -5.29297,9.21875 -12.17969,9.21875 -7.39844,0 -11.60937,-3.87109 -12.40625,-9.04687"
       id="path39" />
    <path
       fill-rule="nonzero"
       fill="#003146"
       fill-opacity="1"
       d="m 445.82422,189.67187 v -4.66796 h 4.95312 v -8.3086 h 6.14453 v 8.3086 h 5.97657 v 4.66796 h -5.97657 v 16.33594 c 0,2.27344 0.6836,2.95703 2.67579,2.95703 0.85156,0 1.76171,-0.11328 2.73046,-0.11328 v 4.94922 l -3.64062,0.22656 h -0.74219 c -5.40625,0 -7.16797,-2.89843 -7.16797,-8.42187 v -15.9336 z m 0,0"
       id="path41" />
    <path
       fill-rule="nonzero"
       fill="#003146"
       fill-opacity="1"
       d="m 469.89453,173.73828 h 6.14844 v 40.0625 h -6.14844 z m 0,0"
       id="path43" />
    <path
       fill-rule="nonzero"
       fill="#003146"
       fill-opacity="1"
       d="m 501.59375,202.64844 v -1.42188 h -6.76953 c -5.06641,0 -6.08985,2.5586 -6.08985,3.98047 0,1.9375 1.3086,3.98438 5.0625,3.98438 5.00782,0 7.79688,-3.41407 7.79688,-6.54297 m -12.00781,-7.73828 c -1.99219,-0.34375 -4.03907,-0.80079 -6.08985,-1.14063 0.62891,-6.375 5.86328,-9.33203 11.89453,-9.33203 8.14063,0 12.35157,3.98047 12.35157,11.83594 v 10.01562 c 0,1.70703 0.33984,2.67578 1.53515,2.67578 0.45703,0 1.19532,-0.11328 1.48047,-0.22656 v 5.00781 c -1.76562,0.45313 -2.90234,0.45313 -3.64062,0.45313 -2.96094,0 -4.55469,-1.76172 -5.01172,-4.09766 -1.13672,1.42578 -4.15235,4.15625 -8.98828,4.26953 -6.66016,0 -10.64453,-3.69922 -10.64453,-9.16406 0,-4.49609 4.15625,-8.58984 11.72265,-8.58984 h 7.39844 v -1.70703 c 0,-2.22266 -0.91016,-5.23829 -6.20313,-5.23829 -3.52734,0 -5.6914,1.76563 -5.80468,5.23829"
       id="path45" />
    <path
       fill-rule="nonzero"
       fill="#003146"
       fill-opacity="1"
       d="m 535.39844,198.15234 c 0,-5.91797 -1.99219,-8.48047 -6.48828,-8.48047 -4.32422,0 -6.42969,2.78907 -6.42969,8.48047 v 15.64844 h -6.14844 v -28.79687 h 5.57813 l 0.57031,3.1289 c 0.96875,-1.76172 4.03906,-3.69531 7.625,-3.69531 8.2539,0.0547 11.38281,4.49609 11.38281,13.71484 v 15.64844 h -6.08984 z m 0,0"
       id="path47" />
    <path
       fill-rule="nonzero"
       fill="#003146"
       fill-opacity="1"
       d="m 561.57812,209.19141 c 4.4375,0 7.11329,-3.47266 7.11329,-9.78907 0,-6.25781 -2.67579,-9.73047 -7.11329,-9.73047 -4.4414,0 -7.39843,3.47266 -7.39843,9.73047 0,6.31641 2.95703,9.78907 7.39843,9.78907 m 13.31641,4.60937 h -5.63281 l -0.57031,-3.58594 c -1.02344,1.59766 -4.21094,4.15625 -8.3086,4.15625 -7.23047,0 -12.46484,-6.08984 -12.46484,-14.96875 0,-8.875 4.66797,-14.96484 12.46484,-14.96484 3.86719,0 7.16797,2.39062 8.3086,4.03906 v -14.73828 h 6.20312 z m 0,0"
       id="path49" />
    <path
       fill-rule="nonzero"
       fill="#003146"
       fill-opacity="1"
       d="m 601.24219,196.61719 c -0.17188,-4.26953 -2.21875,-7 -6.42969,-7 -4.09766,0 -6.43359,3.41406 -6.60156,7 z m 1.30859,7.16797 c 1.87891,0.51171 3.75391,1.08203 5.63281,1.64843 -1.30859,4.15625 -5.23437,8.9375 -13.08984,8.9375 -7.91016,0 -13.54297,-6.08984 -13.54297,-14.96875 0,-8.875 5.23438,-14.96484 13.26172,-14.96484 7.96484,0 12.97266,5.34766 12.97266,14.05469 0,0.85547 0,1.76562 -0.11329,2.73047 h -19.74609 c 0.11328,4.21093 3.01563,7.96875 7.16797,7.96875 3.01953,0 5.97656,-1.42188 7.45703,-5.40625"
       id="path51" />
    <path
       fill-rule="nonzero"
       fill="#003146"
       fill-opacity="1"
       d="m 611.82812,189.67187 v -4.66796 h 4.94922 v -8.3086 h 6.14844 v 8.3086 h 5.97656 v 4.66796 h -5.97656 v 16.33594 c 0,2.27344 0.68359,2.95703 2.67188,2.95703 0.85546,0 1.76562,-0.11328 2.73437,-0.11328 v 4.94922 l -3.64453,0.22656 h -0.73828 c -5.40625,0 -7.17188,-2.89843 -7.17188,-8.42187 v -15.9336 z m 0,0"
       id="path53" />
  </g>
</svg>
