<?xml version="1.0" encoding="UTF-8" standalone="no"?>
<svg
   width="90mm"
   height="12mm"
   viewBox="0 0 255.1181 34.015746"
   version="1.1"
   id="svg55"
   sodipodi:docname="logo.svg"
   inkscape:version="1.2.1 (9c6d41e, 2022-07-14)"
   xmlns:inkscape="http://www.inkscape.org/namespaces/inkscape"
   xmlns:sodipodi="http://sodipodi.sourceforge.net/DTD/sodipodi-0.dtd"
   xmlns="http://www.w3.org/2000/svg"
   xmlns:svg="http://www.w3.org/2000/svg">
  <defs
     id="defs59">
    <clipPath
       id="clip-0">
      <path
         clip-rule="nonzero"
         d="m 768,93 h 22.86719 v 47 H 768 Z m 0,0"
         id="path77" />
    </clipPath>
  </defs>
  <sodipodi:namedview
     id="namedview57"
     pagecolor="#ffffff"
     bordercolor="#000000"
     borderopacity="0.25"
     inkscape:showpageshadow="2"
     inkscape:pageopacity="0.0"
     inkscape:pagecheckerboard="0"
     inkscape:deskcolor="#d1d1d1"
     inkscape:document-units="pt"
     showgrid="false"
     inkscape:zoom="2.1718857"
     inkscape:cx="177.95596"
     inkscape:cy="42.359504"
     inkscape:window-width="1309"
     inkscape:window-height="456"
     inkscape:window-x="0"
     inkscape:window-y="25"
     inkscape:window-maximized="0"
     inkscape:current-layer="svg55"
     showguides="true">
    <sodipodi:guide
       position="-17.611424,56.806998"
       orientation="0.70710678,-0.70710678"
       id="guide909"
       inkscape:locked="false" />
    <sodipodi:guide
       position="5.6692911,12.260458"
       orientation="-1,0"
       id="guide911"
       inkscape:locked="false"
       inkscape:label=""
       inkscape:color="rgb(0,134,229)" />
    <sodipodi:guide
       position="249.44881,31.253169"
       orientation="-1,0"
       id="guide913"
       inkscape:locked="false"
       inkscape:label=""
       inkscape:color="rgb(0,134,229)" />
  </sodipodi:namedview>
  <g
     id="g798"
     transform="matrix(0.17556145,0,0,0.17556145,-9.037247,-11.606928)">
    <path
       fill-rule="nonzero"
       fill="#00b6c9"
       fill-opacity="1"
       d="M 105.19922,92.125 H 83.621094 l 36.007816,62.36328 10.78906,-18.6875 z m 0,0"
       id="path9" />
    <path
       fill-rule="nonzero"
       fill="#00b6c9"
       fill-opacity="1"
       d="m 190.79687,92.125 -42.80078,74.12891 -10.78515,18.68359 28.24218,48.91797 L 247.28125,92.125 Z m 0,0"
       id="path11" />
    <path
       fill-rule="nonzero"
       fill="#003146"
       fill-opacity="1"
       d="m 308.39062,151.20312 v -17.87109 h -17.1875 v 17.87109 h -6.375 v -40.0664 h 6.375 v 16.78906 h 17.1875 v -16.78906 h 6.375 v 40.0664 z m 0,0"
       id="path13" />
    <path
       fill-rule="nonzero"
       fill="#003146"
       fill-opacity="1"
       d="m 342.53516,133.16016 -11.60938,11.49609 c 1.19531,1.30859 2.90234,1.9375 4.83594,1.9375 4.38281,0 7.28515,-3.47266 7.28515,-9.78906 0,-1.3125 -0.17187,-2.5625 -0.51171,-3.64453 m -13.48829,7.625 11.60938,-11.55079 c -1.30859,-1.36718 -2.90234,-2.10546 -5.0625,-2.10546 -4.38281,0 -7.17188,3.64062 -7.17188,9.67578 0,1.47656 0.22657,2.84375 0.625,3.98047 m -8.82031,8.76562 4.15235,-4.15234 c -1.3086,-2.33594 -1.98829,-5.29297 -1.98829,-8.59375 0,-8.87891 5.00782,-14.96875 13.3711,-14.96875 3.64453,0 6.71484,1.30859 8.9375,3.41406 l 3.98047,-3.92578 2.90625,2.90234 -4.38282,4.32422 c 1.25,2.27734 1.875,5.12109 1.875,8.25391 0,8.875 -5.0625,14.96484 -13.3164,14.96484 -3.64063,0 -6.60156,-1.13672 -8.82031,-3.12891 l -3.8711,3.75782 c -0.96484,-0.96875 -1.93359,-1.87891 -2.84375,-2.84766"
       id="path15" />
    <path
       fill-rule="nonzero"
       fill="#003146"
       fill-opacity="1"
       d="m 368.31641,127.07031 c -4.4961,0 -7.45704,3.47266 -7.45704,9.73438 0,6.3164 2.96094,9.78906 7.45704,9.78906 4.4375,0 7.11328,-3.47266 7.11328,-9.78906 0,-6.26172 -2.67578,-9.73438 -7.11328,-9.73438 m 13.3164,22.9375 c 0,8.58985 -5.6914,12.97266 -13.3164,12.97266 -6.48829,0 -11.26954,-2.78516 -12.52344,-7.51172 l 6.03515,-1.64844 c 0.625,2.33203 3.35547,3.98438 6.48829,3.98438 4.77734,0 7.11328,-3.2461 7.11328,-7.79688 v -2.16406 c -1.14063,2.10547 -4.72266,3.92578 -8.08203,3.92578 -7.22657,0 -12.69141,-6.08984 -12.69141,-14.96484 0,-8.82422 5.17969,-14.96875 12.69141,-14.96875 3.8125,0 7.05468,2.27734 8.08203,4.26953 l 0.5664,-3.70313 h 5.63672 z m 0,0"
       id="path17" />
    <path
       fill-rule="nonzero"
       fill="#003146"
       fill-opacity="1"
       d="m 387.83203,142.72266 c 2.05078,-0.39844 4.04297,-0.79688 6.03516,-1.14063 0.39843,2.27734 1.76562,5.00781 6.375,5.00781 1.02343,0 6.08593,-0.39453 6.08593,-4.03906 0,-6.88672 -17.64062,0.22656 -17.64062,-12.12109 0,-4.89453 4.89453,-8.59375 11.04297,-8.59375 6.14453,0 11.3789,2.5625 12.23437,8.99218 -2.05078,0.33985 -4.04297,0.73829 -6.03515,1.13672 -0.39453,-3.58593 -2.61719,-4.89453 -6.03125,-4.89453 -3.01563,0 -5.06641,1.59375 -5.06641,3.35938 0,2.33203 2.16406,2.95703 5.57813,3.30078 6.48828,0.68359 12.00781,2.10547 12.00781,8.82031 0,6.03125 -5.29297,9.21875 -12.17578,9.21875 -7.39844,0 -11.60938,-3.86719 -12.41016,-9.04687"
       id="path19" />
    <path
       fill-rule="nonzero"
       fill="#003146"
       fill-opacity="1"
       d="m 436.43359,122.40234 h 8.36719 l -12.51953,11.78125 c 2.10547,2.67578 11.55078,14.39844 13.71484,17.01563 h -7.33984 l -10.53125,-13.03125 -2.84375,2.73047 v 10.30078 h -6.20313 v -40.0625 h 6.20313 v 21.91015 z m 0,0"
       id="path21" />
    <path
       fill-rule="nonzero"
       fill="#003146"
       fill-opacity="1"
       d="m 455.5,138.11328 c 0,5.91797 1.99219,8.42188 6.48828,8.47656 4.32422,0 6.37109,-2.78515 6.37109,-8.47656 v -15.71094 h 6.14844 v 28.79688 h -5.51953 l -0.62891,-3.07031 c -0.96484,1.64843 -3.98437,3.64062 -7.85156,3.64062 -8.02734,0 -11.15625,-4.4375 -11.15625,-13.65625 V 122.40234 H 455.5 Z m 0,0"
       id="path23" />
    <path
       fill-rule="nonzero"
       fill="#003146"
       fill-opacity="1"
       d="m 482.92969,111.13672 h 6.14453 v 40.0625 h -6.14453 z m 0,0"
       id="path25" />
    <path
       fill-rule="nonzero"
       fill="#003146"
       fill-opacity="1"
       d="m 515.36719,134.01562 c -0.17188,-4.26953 -2.21875,-6.99999 -6.42969,-6.99999 -4.09766,0 -6.42969,3.41406 -6.60156,6.99999 z m 1.30859,7.16797 c 1.87891,0.51563 3.75781,1.08203 5.63672,1.65235 -1.30859,4.15625 -5.23828,8.93359 -13.09375,8.93359 -7.90625,0 -13.54297,-6.08984 -13.54297,-14.96484 0,-8.87891 5.23828,-14.96875 13.26172,-14.96875 7.96875,0 12.97656,5.34765 12.97656,14.05468 0,0.85547 0,1.76563 -0.11328,2.73438 h -19.75 c 0.11328,4.21094 3.01563,7.96484 7.16797,7.96484 3.01953,0 5.97656,-1.42187 7.45703,-5.40625"
       id="path27" />
    <path
       fill-rule="nonzero"
       fill="#003146"
       fill-opacity="1"
       d="m 548.43359,135.55078 c 0,-5.91797 -1.99218,-8.48047 -6.48828,-8.48047 -4.32422,0 -6.42969,2.78906 -6.42969,8.48047 v 15.64844 h -6.14843 v -28.79688 h 5.57812 l 0.57031,3.13282 c 0.96485,-1.76563 4.03907,-3.69922 7.625,-3.69922 8.25,0.0547 11.38282,4.49609 11.38282,13.71484 v 15.64844 h -6.08985 z m 0,0"
       id="path29" />
    <path
       fill-rule="nonzero"
       fill="#003146"
       fill-opacity="1"
       d="m 298.14453,189.67187 c -4.49609,0 -7.11328,3.47266 -7.11328,9.73047 0,6.32032 2.61719,9.78907 7.11328,9.78907 4.44141,0 7.28516,-3.46875 7.28516,-9.78907 0,-6.25781 -2.84375,-9.73047 -7.28516,-9.73047 m -13.31641,-4.66796 h 5.63282 l 0.57031,3.64453 c 1.02734,-1.59375 4.21094,-4.21094 8.36719,-4.21094 7.17187,0 12.29297,6.14453 12.29297,14.96484 0,8.87891 -4.55469,14.96875 -12.29297,14.96875 -3.8711,0 -7.23047,-2.33203 -8.36719,-4.03906 v 14.73828 h -6.20313 z m 0,0"
       id="path31" />
    <path
       fill-rule="nonzero"
       fill="#003146"
       fill-opacity="1"
       d="m 329.67187,179.99609 c 1.53907,0 2.73438,-1.19531 2.73438,-2.67578 0,-1.47656 -1.19531,-2.73047 -2.73438,-2.73047 -1.47656,0 -2.73046,1.25391 -2.73046,2.73047 0,1.48047 1.2539,2.67578 2.73046,2.67578 m 0,-8.02343 c 3.01563,0 5.46485,2.44531 5.46485,5.34765 0,3.01953 -2.44922,5.35156 -5.46485,5.35156 -2.95703,0 -5.46093,-2.33203 -5.46093,-5.35156 0,-2.90234 2.5039,-5.34765 5.46093,-5.34765 m 6.14844,30.67578 v -1.42188 h -6.77344 c -5.0664,0 -6.08984,2.5586 -6.08984,3.98047 0,1.9375 1.30859,3.98438 5.06641,3.98438 5.00781,0 7.79687,-3.41407 7.79687,-6.54297 m -12.00781,-7.73828 c -1.99219,-0.34375 -4.04297,-0.80079 -6.08984,-1.14063 0.625,-6.375 5.86328,-9.33203 11.89453,-9.33203 8.13672,0 12.34765,3.98437 12.34765,11.83594 v 10.01562 c 0,1.70703 0.34375,2.67578 1.53907,2.67578 0.45312,0 1.1914,-0.11328 1.47656,-0.22656 v 5.00781 c -1.76172,0.45313 -2.90235,0.45313 -3.64063,0.45313 -2.95703,0 -4.55078,-1.76563 -5.00781,-4.09766 -1.13672,1.42578 -4.15625,4.15625 -8.99219,4.26953 -6.66015,0 -10.64453,-3.69922 -10.64453,-9.16406 0,-4.49219 4.15625,-8.58984 11.72656,-8.58984 h 7.39844 v -1.70703 c 0,-2.22266 -0.91406,-5.23829 -6.20312,-5.23829 -3.53125,0 -5.69141,1.76563 -5.80469,5.23829"
       id="path33" />
    <path
       fill-rule="nonzero"
       fill="#003146"
       fill-opacity="1"
       d="m 380.03906,173.73828 h 6.71485 l -14.45704,40.0625 h -6.14453 l -14.34375,-40.0625 h 6.60157 l 10.8125,30.84375 z m 0,0"
       id="path35" />
    <path
       fill-rule="nonzero"
       fill="#003146"
       fill-opacity="1"
       d="m 405.70312,196.61719 c -0.17187,-4.26953 -2.21875,-7 -6.42968,-7 -4.09766,0 -6.4336,3.41406 -6.60157,7 z m 1.3086,7.16797 c 1.8789,0.51171 3.7539,1.08203 5.63281,1.64843 -1.30859,4.15625 -5.23437,8.9375 -13.08594,8.9375 -7.91015,0 -13.54687,-6.08984 -13.54687,-14.96875 0,-8.875 5.23437,-14.96484 13.26172,-14.96484 7.96484,0 12.97656,5.34766 12.97656,14.05469 0,0.85547 0,1.76562 -0.11719,2.73047 h -19.74609 c 0.11328,4.21093 3.01562,7.96875 7.17187,7.96875 3.01563,0 5.97266,-1.42188 7.45313,-5.40625"
       id="path37" />
    <path
       fill-rule="nonzero"
       fill="#003146"
       fill-opacity="1"
       d="m 417.42578,205.32422 c 2.05078,-0.39844 4.03906,-0.79688 6.03125,-1.14063 0.39844,2.27735 1.76563,5.00782 6.375,5.00782 1.02344,0 6.08984,-0.39844 6.08984,-4.03907 0,-6.88672 -17.64062,0.22657 -17.64062,-12.12109 0,-4.89453 4.89453,-8.59375 11.03906,-8.59375 6.14453,0 11.38281,2.55859 12.23438,8.98828 -2.04688,0.34375 -4.03907,0.74219 -6.03125,1.14063 -0.39844,-3.58594 -2.61719,-4.89454 -6.03516,-4.89454 -3.01172,0 -5.0625,1.59375 -5.0625,3.35938 0,2.33203 2.16406,2.95703 5.57813,3.30078 6.48437,0.67969 12.00781,2.10547 12.00781,8.82031 0,6.03125 -5.29297,9.21875 -12.17969,9.21875 -7.39844,0 -11.60937,-3.87109 -12.40625,-9.04687"
       id="path39" />
    <path
       fill-rule="nonzero"
       fill="#003146"
       fill-opacity="1"
       d="m 445.82422,189.67187 v -4.66796 h 4.95312 v -8.3086 h 6.14453 v 8.3086 h 5.97657 v 4.66796 h -5.97657 v 16.33594 c 0,2.27344 0.6836,2.95703 2.67579,2.95703 0.85156,0 1.76171,-0.11328 2.73046,-0.11328 v 4.94922 l -3.64062,0.22656 h -0.74219 c -5.40625,0 -7.16797,-2.89843 -7.16797,-8.42187 v -15.9336 z m 0,0"
       id="path41" />
    <path
       fill-rule="nonzero"
       fill="#003146"
       fill-opacity="1"
       d="m 469.89453,173.73828 h 6.14844 v 40.0625 h -6.14844 z m 0,0"
       id="path43" />
    <path
       fill-rule="nonzero"
       fill="#003146"
       fill-opacity="1"
       d="m 501.59375,202.64844 v -1.42188 h -6.76953 c -5.06641,0 -6.08985,2.5586 -6.08985,3.98047 0,1.9375 1.3086,3.98438 5.0625,3.98438 5.00782,0 7.79688,-3.41407 7.79688,-6.54297 m -12.00781,-7.73828 c -1.99219,-0.34375 -4.03907,-0.80079 -6.08985,-1.14063 0.62891,-6.375 5.86328,-9.33203 11.89453,-9.33203 8.14063,0 12.35157,3.98047 12.35157,11.83594 v 10.01562 c 0,1.70703 0.33984,2.67578 1.53515,2.67578 0.45703,0 1.19532,-0.11328 1.48047,-0.22656 v 5.00781 c -1.76562,0.45313 -2.90234,0.45313 -3.64062,0.45313 -2.96094,0 -4.55469,-1.76172 -5.01172,-4.09766 -1.13672,1.42578 -4.15235,4.15625 -8.98828,4.26953 -6.66016,0 -10.64453,-3.69922 -10.64453,-9.16406 0,-4.49609 4.15625,-8.58984 11.72265,-8.58984 h 7.39844 v -1.70703 c 0,-2.22266 -0.91016,-5.23829 -6.20313,-5.23829 -3.52734,0 -5.6914,1.76563 -5.80468,5.23829"
       id="path45" />
    <path
       fill-rule="nonzero"
       fill="#003146"
       fill-opacity="1"
       d="m 535.39844,198.15234 c 0,-5.91797 -1.99219,-8.48047 -6.48828,-8.48047 -4.32422,0 -6.42969,2.78907 -6.42969,8.48047 v 15.64844 h -6.14844 v -28.79687 h 5.57813 l 0.57031,3.1289 c 0.96875,-1.76172 4.03906,-3.69531 7.625,-3.69531 8.2539,0.0547 11.38281,4.49609 11.38281,13.71484 v 15.64844 h -6.08984 z m 0,0"
       id="path47" />
    <path
       fill-rule="nonzero"
       fill="#003146"
       fill-opacity="1"
       d="m 561.57812,209.19141 c 4.4375,0 7.11329,-3.47266 7.11329,-9.78907 0,-6.25781 -2.67579,-9.73047 -7.11329,-9.73047 -4.4414,0 -7.39843,3.47266 -7.39843,9.73047 0,6.31641 2.95703,9.78907 7.39843,9.78907 m 13.31641,4.60937 h -5.63281 l -0.57031,-3.58594 c -1.02344,1.59766 -4.21094,4.15625 -8.3086,4.15625 -7.23047,0 -12.46484,-6.08984 -12.46484,-14.96875 0,-8.875 4.66797,-14.96484 12.46484,-14.96484 3.86719,0 7.16797,2.39062 8.3086,4.03906 v -14.73828 h 6.20312 z m 0,0"
       id="path49" />
    <path
       fill-rule="nonzero"
       fill="#003146"
       fill-opacity="1"
       d="m 601.24219,196.61719 c -0.17188,-4.26953 -2.21875,-7 -6.42969,-7 -4.09766,0 -6.43359,3.41406 -6.60156,7 z m 1.30859,7.16797 c 1.87891,0.51171 3.75391,1.08203 5.63281,1.64843 -1.30859,4.15625 -5.23437,8.9375 -13.08984,8.9375 -7.91016,0 -13.54297,-6.08984 -13.54297,-14.96875 0,-8.875 5.23438,-14.96484 13.26172,-14.96484 7.96484,0 12.97266,5.34766 12.97266,14.05469 0,0.85547 0,1.76562 -0.11329,2.73047 h -19.74609 c 0.11328,4.21093 3.01563,7.96875 7.16797,7.96875 3.01953,0 5.97656,-1.42188 7.45703,-5.40625"
       id="path51" />
    <path
       fill-rule="nonzero"
       fill="#003146"
       fill-opacity="1"
       d="m 611.82812,189.67187 v -4.66796 h 4.94922 v -8.3086 h 6.14844 v 8.3086 h 5.97656 v 4.66796 h -5.97656 v 16.33594 c 0,2.27344 0.68359,2.95703 2.67188,2.95703 0.85546,0 1.76562,-0.11328 2.73437,-0.11328 v 4.94922 l -3.64453,0.22656 h -0.73828 c -5.40625,0 -7.17188,-2.89843 -7.17188,-8.42187 v -15.9336 z m 0,0"
       id="path53" />
  </g>
  <g
     id="g773"
     transform="matrix(0.17556145,0,0,0.17556145,31.275728,-7.2422212)">
    <path
       fill-rule="nonzero"
       fill="#052038"
       fill-opacity="1"
       d="M 687.52891,77.183505 V 108.5585 c 0,3.58204 -0.80469,6.72266 -2.40625,9.41797 -1.60156,2.69922 -3.91797,4.76563 -6.94922,6.20313 -3.02734,1.4375 -6.60937,2.15625 -10.74218,2.15625 -6.23829,0 -11.07813,-1.59766 -14.52735,-4.79297 -3.44922,-3.19531 -5.17578,-7.56641 -5.17578,-13.11719 V 77.183505 h 10.25 V 106.8671 c 0,3.73828 0.75,6.48047 2.25391,8.22265 1.5039,1.75 3.99218,2.6211 7.46093,2.6211 3.36329,0 5.80079,-0.87891 7.31641,-2.63672 1.51172,-1.75781 2.26953,-4.51563 2.26953,-8.27344 V 77.183505 Z m 0,0"
       id="path82" />
    <path
       fill-rule="nonzero"
       fill="#052038"
       fill-opacity="1"
       d="M 708.72032,125.67179 H 698.60704 V 88.593662 h 10.11328 z M 698.17344,79.007724 c 0,-3.292969 1.83594,-4.941406 5.50782,-4.941406 3.66796,0 5.5039,1.648437 5.5039,4.941406 0,1.570313 -0.45703,2.792969 -1.375,3.664063 -0.91797,0.875 -2.29687,1.3125 -4.1289,1.3125 -3.67188,0 -5.50782,-1.660156 -5.50782,-4.976563"
       id="path84" />
    <path
       fill-rule="nonzero"
       fill="#052038"
       fill-opacity="1"
       d="M 740.19297,125.67179 H 729.91172 V 85.738193 h -13.16796 v -8.554688 h 36.61718 v 8.554688 h -13.16797 z m 0,0"
       id="path86" />
    <path
       fill-rule="nonzero"
       fill="#052038"
       fill-opacity="1"
       d="m 816.90391,125.67179 h -6.43359 l -26.5,-40.695316 h -0.26563 c 0.35547,4.777344 0.53125,9.15625 0.53125,13.132813 v 27.562503 h -5.20703 V 77.183505 h 6.3711 l 26.42968,40.527345 h 0.26563 c -0.043,-0.59766 -0.14453,-2.51563 -0.29688,-5.75391 -0.15625,-3.23828 -0.21093,-5.55469 -0.16797,-6.94531 V 77.183505 h 5.27344 z m 0,0"
       id="path88" />
    <path
       fill-rule="nonzero"
       fill="#052038"
       fill-opacity="1"
       d="m 833.09141,107.46475 c 0,4.64454 0.92578,8.17969 2.78516,10.61329 1.85547,2.43359 4.58594,3.64843 8.1914,3.64843 3.60547,0 6.33985,-1.21093 8.20704,-3.63281 1.87109,-2.42187 2.80468,-5.96484 2.80468,-10.62891 0,-4.62109 -0.93359,-8.132807 -2.80468,-10.531245 -1.86719,-2.398437 -4.625,-3.597656 -8.27344,-3.597656 -3.60547,0 -6.32422,1.183594 -8.16016,3.546875 -1.83594,2.367188 -2.75,5.894526 -2.75,10.582026 m 27.69141,0 c 0,5.92579 -1.49219,10.55079 -4.47656,13.87891 -2.98438,3.32813 -7.10938,4.99219 -12.3711,4.99219 -3.25,0 -6.13672,-0.76563 -8.65625,-2.28906 -2.51953,-1.52344 -4.46484,-3.71485 -5.83594,-6.56641 -1.375,-2.85156 -2.05859,-6.19141 -2.05859,-10.01563 0,-5.92578 1.48047,-10.542963 4.44531,-13.847651 2.96094,-3.304687 7.07422,-4.957031 12.33594,-4.957031 5.08594,0 9.12891,1.691406 12.125,5.074219 2.99219,3.382812 4.49219,7.957033 4.49219,13.730463"
       id="path90" />
    <path
       fill-rule="nonzero"
       fill="#052038"
       fill-opacity="1"
       d="m 887.01719,88.660068 c 1.61328,0 3.0625,0.132813 4.34375,0.398437 l -0.76172,5.105469 c -1.5039,-0.332031 -2.83203,-0.496093 -3.98046,-0.496093 -2.94141,0 -5.45704,1.195312 -7.54297,3.582031 -2.08985,2.386719 -3.13672,5.363278 -3.13672,8.921878 v 19.5 h -5.50391 V 89.324131 h 4.54297 l 0.62891,6.730468 h 0.26562 c 1.34766,-2.367187 2.97266,-4.1875 4.875,-5.472656 1.90235,-1.28125 3.99219,-1.921875 6.26953,-1.921875"
       id="path92" />
    <path
       fill-rule="nonzero"
       fill="#052038"
       fill-opacity="1"
       d="m 901.90782,100.96475 c 0,2.54297 0.71875,4.46485 2.15625,5.76954 1.4375,1.30468 3.4375,1.95703 6.0039,1.95703 5.3711,0 8.0586,-2.60938 8.0586,-7.82813 0,-5.460935 -2.71875,-8.191403 -8.16016,-8.191403 -2.58594,0 -4.57812,0.695312 -5.96875,2.089844 -1.39453,1.390624 -2.08984,3.460937 -2.08984,6.203119 m -2.98438,30.8086 c 0,1.96875 0.82813,3.46094 2.48828,4.48047 1.65625,1.01562 4.03516,1.52343 7.12891,1.52343 4.62109,0 8.04297,-0.6914 10.26563,-2.07421 2.22265,-1.38282 3.33203,-3.25391 3.33203,-5.6211 0,-1.96875 -0.60547,-3.33203 -1.82422,-4.09375 -1.21485,-0.76172 -3.50391,-1.14453 -6.86328,-1.14453 h -6.60157 c -2.5,0 -4.4414,0.59766 -5.83593,1.78906 -1.39453,1.19532 -2.08985,2.91016 -2.08985,5.14063 m 28.98828,-42.453126 v 3.484375 l -6.73437,0.796875 c 0.61719,0.773438 1.17187,1.785157 1.66016,3.035157 0.48437,1.25 0.72656,2.660156 0.72656,4.226559 0,3.5625 -1.21485,6.40235 -3.64844,8.52344 -2.42969,2.125 -5.76953,3.18359 -10.01562,3.18359 -1.08204,0 -2.09766,-0.0859 -3.05079,-0.26172 -2.34375,1.23829 -3.51562,2.79688 -3.51562,4.67579 0,0.99218 0.41016,1.73046 1.22656,2.20312 0.82031,0.47656 2.22266,0.71484 4.21485,0.71484 h 6.43359 c 3.93359,0 6.95703,0.82813 9.07031,2.48829 2.10938,1.65625 3.16797,4.0664 3.16797,7.22656 0,4.02734 -1.61719,7.09375 -4.84375,9.20312 -3.22656,2.11328 -7.9375,3.16797 -14.12891,3.16797 -4.7539,0 -8.41796,-0.88281 -10.99218,-2.65234 -2.57813,-1.76953 -3.86328,-4.26953 -3.86328,-7.4961 0,-2.21093 0.70703,-4.12109 2.12109,-5.73828 1.41406,-1.61328 3.40625,-2.70703 5.96875,-3.28125 -0.92969,-0.42187 -1.70703,-1.07422 -2.33594,-1.95703 -0.63281,-0.88281 -0.94531,-1.91406 -0.94531,-3.08594 0,-1.32421 0.35156,-2.48437 1.05859,-3.48046 0.70703,-0.9961 1.82422,-1.95704 3.35157,-2.88672 -1.87891,-0.77344 -3.41016,-2.08985 -4.59375,-3.94532 -1.1836,-1.85937 -1.77344,-3.98046 -1.77344,-6.36718 0,-3.980471 1.1914,-7.046877 3.58203,-9.203127 2.38672,-2.15625 5.76953,-3.234375 10.14844,-3.234375 1.89843,0 3.61328,0.222656 5.14062,0.660156 z m 0,0"
       id="path94" />
    <path
       fill-rule="nonzero"
       fill="#052038"
       fill-opacity="1"
       d="m 949.23594,93.269443 c -2.91797,0 -5.24609,0.949219 -6.98047,2.851562 -1.73828,1.902344 -2.76171,4.535155 -3.07031,7.894535 h 19.00391 c 0,-3.47266 -0.77344,-6.132816 -2.32031,-7.976566 -1.55079,-1.847656 -3.76172,-2.769531 -6.63282,-2.769531 m 1.49219,33.066407 c -5.375,0 -9.61328,-1.63672 -12.71875,-4.91016 -3.10547,-3.26953 -4.66016,-7.8125 -4.66016,-13.6289 0,-5.85938 1.44141,-10.515628 4.32813,-13.964847 2.88672,-3.449219 6.76172,-5.171875 11.625,-5.171875 4.55469,0 8.15625,1.496094 10.80859,4.492187 2.65625,2.996094 3.98047,6.949215 3.98047,11.855465 v 3.48438 h -25.03906 c 0.11328,4.26562 1.1875,7.50781 3.23437,9.71875 2.04688,2.21094 4.92579,3.3164 8.64063,3.3164 3.91406,0 7.78125,-0.82031 11.60547,-2.45312 v 4.90625 c -1.94531,0.83984 -3.78516,1.44141 -5.51953,1.80859 -1.73828,0.36328 -3.83203,0.54688 -6.28516,0.54688"
       id="path96" />
    <path
       fill-rule="nonzero"
       fill="#052038"
       fill-opacity="1"
       d="m 996.92735,115.75772 c 0,3.38282 -1.26172,5.98828 -3.78125,7.82422 -2.51953,1.83594 -6.05859,2.75391 -10.61328,2.75391 -4.82031,0 -8.57813,-0.76563 -11.27735,-2.28906 v -5.10547 c 1.7461,0.88281 3.6211,1.57812 5.6211,2.08593 2.0039,0.50782 3.93359,0.76563 5.78906,0.76563 2.87109,0 5.08594,-0.46094 6.63281,-1.37891 1.54688,-0.91406 2.32032,-2.3125 2.32032,-4.19531 0,-1.41406 -0.61329,-2.625 -1.83985,-3.62891 -1.22656,-1.00781 -3.62109,-2.19531 -7.17969,-3.5664 -3.38281,-1.26172 -5.78906,-2.35938 -7.21484,-3.30078 -1.42578,-0.94141 -2.48437,-2.00391 -3.18359,-3.19922 -0.69532,-1.19531 -1.04297,-2.621095 -1.04297,-4.281251 0,-2.960937 1.20312,-5.296875 3.61328,-7.011718 2.41016,-1.714844 5.71484,-2.570313 9.91797,-2.570313 3.91406,0 7.73828,0.796875 11.47265,2.386719 l -1.95312,4.476562 c -3.64844,-1.5 -6.95703,-2.253906 -9.91797,-2.253906 -2.60937,0 -4.57812,0.410156 -5.90234,1.226562 -1.32813,0.820313 -1.99219,1.945313 -1.99219,3.382813 0,0.972656 0.25,1.804687 0.74609,2.488282 0.5,0.68359 1.30078,1.33984 2.40625,1.95703 1.10547,0.61719 3.22657,1.51562 6.36719,2.6875 4.3125,1.57031 7.22266,3.14844 8.73828,4.74219 1.51563,1.58984 2.27344,3.59375 2.27344,6.0039"
       id="path98" />
    <path
       fill-rule="nonzero"
       fill="#052038"
       fill-opacity="1"
       d="m 657.71251,194.79288 c 3.42578,0 6.11718,-0.94141 8.07421,-2.82032 1.95704,-1.8789 2.9375,-4.51171 2.9375,-7.89453 v -3.28125 l -5.50781,0.23047 c -4.375,0.15625 -7.53515,0.83594 -9.46875,2.03907 -1.93359,1.20703 -2.90234,3.07812 -2.90234,5.62109 0,1.99219 0.60547,3.5039 1.80859,4.54297 1.20313,1.04297 2.89063,1.5625 5.0586,1.5625 m 12.4375,3.8789 -1.09375,-5.17187 h -0.26563 c -1.81641,2.27344 -3.62109,3.8164 -5.42187,4.625 -1.80469,0.80859 -4.05469,1.21094 -6.75,1.21094 -3.60547,0 -6.42969,-0.92969 -8.47657,-2.78516 -2.04297,-1.85938 -3.0664,-4.5 -3.0664,-7.92578 0,-7.34375 5.87109,-11.1875 17.60937,-11.54297 l 6.17188,-0.19922 v -2.2539 c 0,-2.85547 -0.61328,-4.96094 -1.84375,-6.32032 -1.22657,-1.35937 -3.1875,-2.03906 -5.88672,-2.03906 -3.02735,0 -6.45313,0.92969 -10.28125,2.78516 l -1.69141,-4.21094 c 1.79297,-0.97266 3.75391,-1.73828 5.89063,-2.28906 2.13281,-0.55078 4.26953,-0.82813 6.41406,-0.82813 4.33594,0 7.54687,0.96094 9.63672,2.88281 2.08984,1.92579 3.13281,5.01172 3.13281,9.25391 v 24.80859 z m 0,0"
       id="path100" />
    <path
       fill-rule="nonzero"
       fill="#052038"
       fill-opacity="1"
       d="m 702.15391,161.66007 c 1.61328,0 3.0625,0.13281 4.34375,0.39843 l -0.76172,5.10547 c -1.5039,-0.33203 -2.83203,-0.49609 -3.98047,-0.49609 -2.9414,0 -5.45703,1.19531 -7.54296,3.58203 -2.08985,2.38672 -3.13672,5.36328 -3.13672,8.92187 v 19.5 h -5.50391 v -36.34765 h 4.54297 l 0.62891,6.73047 h 0.26562 c 1.34766,-2.36719 2.97266,-4.1875 4.875,-5.47266 1.90234,-1.28125 3.99219,-1.92187 6.26953,-1.92187"
       id="path102" />
    <path
       fill-rule="nonzero"
       fill="#052038"
       fill-opacity="1"
       d="m 718.73594,180.06632 c 0.94922,-1.34766 2.39844,-3.11719 4.34375,-5.3086 l 11.74219,-12.43359 h 6.53516 l -14.72657,15.48828 15.75391,20.85937 h -6.66797 l -12.83594,-17.17968 -4.14453,3.58203 v 13.59765 h -5.4375 v -51.60546 h 5.4375 v 27.35937 c 0,1.21875 -0.0898,3.09766 -0.26562,5.64063 z m 0,0"
       id="path104" />
    <path
       fill-rule="nonzero"
       fill="#052038"
       fill-opacity="1"
       d="m 760.68907,194.79288 c 0.97265,0 1.91406,-0.0742 2.82031,-0.21485 0.90625,-0.14453 1.625,-0.29687 2.15625,-0.44922 v 4.21094 c -0.59766,0.28906 -1.47656,0.52344 -2.63672,0.71485 -1.16015,0.1875 -2.20703,0.28125 -3.13281,0.28125 -7.03125,0 -10.54688,-3.70313 -10.54688,-11.10938 v -21.625 h -5.20703 v -2.65625 l 5.20703,-2.28515 2.32032,-7.76172 h 3.18359 v 8.42187 h 10.54688 v 4.28125 h -10.54688 v 21.39063 c 0,2.1914 0.51953,3.87109 1.55859,5.04296 1.03907,1.17188 2.46485,1.75782 4.27735,1.75782"
       id="path106" />
    <path
       fill-rule="nonzero"
       fill="#052038"
       fill-opacity="1"
       d="m 778.43516,198.67178 h -5.50781 v -36.35156 h 5.50781 z m -5.97265,-46.19921 c 0,-1.26172 0.3125,-2.1836 0.92968,-2.76953 0.6211,-0.58594 1.39453,-0.87891 2.32032,-0.87891 0.88671,0 1.64843,0.29687 2.28906,0.89453 0.64062,0.59766 0.96094,1.51563 0.96094,2.75391 0,1.23828 -0.32032,2.16015 -0.96094,2.76953 -0.64063,0.60937 -1.40235,0.91015 -2.28906,0.91015 -0.92579,0 -1.69922,-0.30078 -2.32032,-0.91015 -0.61718,-0.60938 -0.92968,-1.53125 -0.92968,-2.76953"
       id="path108" />
    <path
       fill-rule="nonzero"
       fill="#052038"
       fill-opacity="1"
       d="m 813.55626,188.75772 c 0,3.38281 -1.26172,5.98828 -3.78125,7.82422 -2.51954,1.83594 -6.0586,2.75391 -10.61329,2.75391 -4.82031,0 -8.57812,-0.76563 -11.27343,-2.28907 v -5.10547 c 1.74609,0.88282 3.61718,1.57813 5.62109,2.08594 2,0.50781 3.92969,0.76563 5.78516,0.76563 2.875,0 5.08593,-0.46094 6.63281,-1.37891 1.54687,-0.91406 2.32031,-2.3125 2.32031,-4.19531 0,-1.41406 -0.60937,-2.625 -1.83984,-3.62891 -1.22656,-1.00781 -3.6211,-2.19531 -7.17969,-3.5664 -3.38281,-1.26172 -5.78516,-2.35938 -7.21484,-3.30078 -1.42578,-0.94141 -2.48438,-2.00391 -3.1836,-3.19922 -0.69531,-1.19532 -1.04297,-2.6211 -1.04297,-4.28125 0,-2.96094 1.20313,-5.29688 3.61329,-7.01172 2.41015,-1.71485 5.71484,-2.57031 9.91796,-2.57031 3.91407,0 7.73829,0.79687 11.47657,2.38671 l -1.95703,4.47657 c -3.64844,-1.5 -6.95313,-2.25391 -9.91797,-2.25391 -2.60938,0 -4.57422,0.41016 -5.90235,1.22656 -1.32812,0.82032 -1.99218,1.94532 -1.99218,3.38282 0,0.97265 0.25,1.80468 0.74609,2.48828 0.5,0.68359 1.30078,1.33984 2.40625,1.95703 1.10547,0.61719 3.22656,1.51562 6.36719,2.6875 4.3125,1.57031 7.22656,3.14844 8.73828,4.74219 1.51562,1.58984 2.27344,3.59375 2.27344,6.0039"
       id="path110" />
    <path
       fill-rule="nonzero"
       fill="#052038"
       fill-opacity="1"
       d="m 827.95079,180.06632 c 0.94922,-1.34766 2.39843,-3.11719 4.34375,-5.3086 l 11.74218,-12.43359 h 6.53125 l -14.72265,15.48828 15.75,20.85937 h -6.66406 l -12.83594,-17.17968 -4.14453,3.58203 v 13.59765 h -5.44141 v -51.60546 h 5.44141 v 27.35937 c 0,1.21875 -0.0899,3.09766 -0.26563,5.64063 z m 0,0"
       id="path112" />
    <path
       fill-rule="nonzero"
       fill="#052038"
       fill-opacity="1"
       d="m 872.02891,166.26944 c -2.92187,0 -5.24609,0.94922 -6.98437,2.85156 -1.73438,1.90235 -2.75782,4.53516 -3.06641,7.89453 h 19.00391 c 0,-3.47265 -0.77344,-6.1289 -2.32032,-7.97656 -1.55078,-1.84765 -3.76171,-2.76953 -6.63281,-2.76953 m 1.49219,33.06641 c -5.375,0 -9.61328,-1.63672 -12.72266,-4.91016 -3.10547,-3.26953 -4.65625,-7.8125 -4.65625,-13.62891 0,-5.85937 1.44141,-10.51562 4.32422,-13.96484 2.88672,-3.44922 6.76172,-5.17187 11.625,-5.17187 4.5586,0 8.16016,1.49609 10.8125,4.49218 2.65625,2.9961 3.98047,6.94922 3.98047,11.85938 v 3.48047 h -25.03906 c 0.10937,4.26953 1.1875,7.50781 3.23437,9.71875 2.04297,2.21093 4.92578,3.3164 8.63672,3.3164 3.91406,0 7.78516,-0.82031 11.60938,-2.45312 v 4.90625 c -1.94532,0.83984 -3.78516,1.4414 -5.52344,1.80859 -1.73438,0.36328 -3.82813,0.54688 -6.28125,0.54688"
       id="path114" />
    <path
       fill-rule="nonzero"
       fill="#052038"
       fill-opacity="1"
       d="m 919.08751,162.32413 v 23.57812 c 0,2.96485 0.67578,5.17578 2.02343,6.63281 1.34766,1.46094 3.46094,2.19141 6.33594,2.19141 3.80078,0 6.58203,-1.03906 8.33984,-3.11719 1.75782,-2.07812 2.63672,-5.47265 2.63672,-10.18359 v -19.10156 h 5.50782 v 36.34765 h -4.54688 l -0.79297,-4.875 h -0.30078 c -1.125,1.79297 -2.69141,3.16407 -4.69141,4.11328 -2,0.94922 -4.28515,1.42579 -6.84765,1.42579 -4.42578,0 -7.73438,-1.05079 -9.9336,-3.15235 -2.20312,-2.09765 -3.30078,-5.46094 -3.30078,-10.08203 v -23.77734 z m 0,0"
       id="path116" />
    <path
       fill-rule="nonzero"
       fill="#052038"
       fill-opacity="1"
       d="m 980.47813,198.67178 v -23.51562 c 0,-2.96094 -0.67578,-5.17188 -2.02344,-6.63281 -1.34765,-1.45703 -3.46093,-2.1875 -6.33593,-2.1875 -3.80079,0 -6.58594,1.02734 -8.35547,3.08593 -1.76953,2.05469 -2.65235,5.44922 -2.65235,10.17969 v 19.07031 h -5.50781 v -36.35156 h 4.47656 l 0.89844,4.97656 h 0.26563 c 1.125,-1.78906 2.70703,-3.17968 4.74218,-4.16015 2.03125,-0.98438 4.29688,-1.47656 6.79688,-1.47656 4.3789,0 7.67187,1.05468 9.88281,3.16406 2.21094,2.11328 3.31641,5.49219 3.31641,10.13672 v 23.71093 z m 0,0"
       id="path118" />
    <path
       fill-rule="nonzero"
       fill="#052038"
       fill-opacity="1"
       d="m 1002.7984,198.67178 h -5.50777 v -36.35156 h 5.50777 z m -5.96871,-46.19921 c 0,-1.26172 0.3086,-2.1836 0.92578,-2.76953 0.6211,-0.58594 1.39454,-0.87891 2.32423,-0.87891 0.8828,0 1.6445,0.29687 2.2891,0.89453 0.6406,0.59766 0.9609,1.51563 0.9609,2.75391 0,1.23828 -0.3203,2.16015 -0.9609,2.76953 -0.6446,0.60937 -1.4063,0.91015 -2.2891,0.91015 -0.92969,0 -1.70313,-0.30078 -2.32423,-0.91015 -0.61718,-0.60938 -0.92578,-1.53125 -0.92578,-2.76953"
       id="path120" />
    <path
       fill-rule="nonzero"
       fill="#052038"
       fill-opacity="1"
       d="m 1022.4313,198.67178 -13.7969,-36.35156 h 5.9023 l 7.8281,21.5586 c 1.7696,5.04296 2.8086,8.31249 3.1172,9.8164 h 0.2657 c 0.2461,-1.16797 1.0117,-3.59766 2.3047,-7.27734 1.2968,-3.6836 4.1953,-11.71094 8.707,-24.09766 h 5.9023 l -13.7968,36.35156 z m 0,0"
       id="path122" />
    <path
       fill-rule="nonzero"
       fill="#052038"
       fill-opacity="1"
       d="m 1062.3649,166.26944 c -2.9219,0 -5.2461,0.94922 -6.9844,2.85156 -1.7344,1.90235 -2.7578,4.53516 -3.0664,7.89453 h 19.0039 c 0,-3.47265 -0.7735,-6.1289 -2.3203,-7.97656 -1.5508,-1.84765 -3.7618,-2.76953 -6.6328,-2.76953 m 1.4921,33.06641 c -5.375,0 -9.6132,-1.63672 -12.7226,-4.91016 -3.1055,-3.26953 -4.6563,-7.8125 -4.6563,-13.62891 0,-5.85937 1.4414,-10.51562 4.3282,-13.96484 2.8828,-3.44922 6.7578,-5.17187 11.6211,-5.17187 4.5585,0 8.1601,1.49609 10.8125,4.49218 2.6562,2.9961 3.9804,6.94922 3.9804,11.85938 v 3.48047 h -25.039 c 0.1093,4.26953 1.1875,7.50781 3.2343,9.71875 2.043,2.21093 4.9258,3.3164 8.6368,3.3164 3.914,0 7.7851,-0.82031 11.6093,-2.45312 v 4.90625 c -1.9453,0.83984 -3.7851,1.4414 -5.5195,1.80859 -1.7383,0.36328 -3.832,0.54688 -6.2852,0.54688"
       id="path124" />
    <path
       fill-rule="nonzero"
       fill="#052038"
       fill-opacity="1"
       d="m 1103.1891,161.66007 c 1.6133,0 3.0625,0.13281 4.3476,0.39843 l -0.7656,5.10547 c -1.5039,-0.33203 -2.8281,-0.49609 -3.9805,-0.49609 -2.9375,0 -5.4531,1.19531 -7.5429,3.58203 -2.0899,2.38672 -3.1328,5.36328 -3.1328,8.92187 v 19.5 h -5.5079 v -36.34765 h 4.543 l 0.6328,6.73047 h 0.2617 c 1.3516,-2.36719 2.9766,-4.1875 4.875,-5.47266 1.9024,-1.28125 3.9922,-1.92187 6.2696,-1.92187"
       id="path126" />
    <path
       fill-rule="nonzero"
       fill="#052038"
       fill-opacity="1"
       d="m 1137.7828,188.75772 c 0,3.38281 -1.2617,5.98828 -3.7812,7.82422 -2.5196,1.83594 -6.0586,2.75391 -10.6133,2.75391 -4.8203,0 -8.5781,-0.76563 -11.2774,-2.28907 v -5.10547 c 1.7461,0.88282 3.6211,1.57813 5.6211,2.08594 2.0039,0.50781 3.9336,0.76563 5.7891,0.76563 2.875,0 5.0859,-0.46094 6.6328,-1.37891 1.5469,-0.91406 2.3203,-2.3125 2.3203,-4.19531 0,-1.41406 -0.6133,-2.625 -1.8398,-3.62891 -1.2266,-1.00781 -3.6211,-2.19531 -7.1797,-3.5664 -3.3828,-1.26172 -5.7891,-2.35938 -7.2149,-3.30078 -1.4257,-0.94141 -2.4843,-2.00391 -3.1835,-3.19922 -0.6954,-1.19532 -1.043,-2.6211 -1.043,-4.28125 0,-2.96094 1.2031,-5.29688 3.6133,-7.01172 2.4101,-1.71485 5.7148,-2.57031 9.9179,-2.57031 3.9141,0 7.7383,0.79687 11.4766,2.38671 l -1.957,4.47657 c -3.6485,-1.5 -6.9571,-2.25391 -9.918,-2.25391 -2.6094,0 -4.5781,0.41016 -5.9023,1.22656 -1.3282,0.82032 -1.9922,1.94532 -1.9922,3.38282 0,0.97265 0.25,1.80468 0.7461,2.48828 0.5,0.68359 1.3007,1.33984 2.4062,1.95703 1.1055,0.61719 3.2266,1.51562 6.3672,2.6875 4.3125,1.57031 7.2227,3.14844 8.7383,4.74219 1.5156,1.58984 2.2734,3.59375 2.2734,6.0039"
       id="path128" />
    <path
       fill-rule="nonzero"
       fill="#052038"
       fill-opacity="1"
       d="m 1152.2438,198.67178 h -5.5079 v -36.35156 h 5.5079 z m -5.9727,-46.19921 c 0,-1.26172 0.3125,-2.1836 0.9297,-2.76953 0.6172,-0.58594 1.3906,-0.87891 2.3203,-0.87891 0.8867,0 1.6484,0.29687 2.2891,0.89453 0.6406,0.59766 0.9609,1.51563 0.9609,2.75391 0,1.23828 -0.3203,2.16015 -0.9609,2.76953 -0.6407,0.60937 -1.4024,0.91015 -2.2891,0.91015 -0.9297,0 -1.7031,-0.30078 -2.3203,-0.91015 -0.6172,-0.60938 -0.9297,-1.53125 -0.9297,-2.76953"
       id="path130" />
    <path
       fill-rule="nonzero"
       fill="#052038"
       fill-opacity="1"
       d="m 1175.6578,194.79288 c 0.9727,0 1.9102,-0.0742 2.8164,-0.21485 0.9063,-0.14453 1.625,-0.29687 2.1563,-0.44922 v 4.21094 c -0.5977,0.28906 -1.4766,0.52344 -2.6367,0.71485 -1.1602,0.1875 -2.2032,0.28125 -3.1329,0.28125 -7.0312,0 -10.5468,-3.70313 -10.5468,-11.10938 v -21.625 h -5.2071 v -2.65625 l 5.2071,-2.28515 2.3203,-7.76172 h 3.1836 v 8.42187 h 10.5469 v 4.28125 h -10.5469 v 21.39063 c 0,2.1914 0.5195,3.87109 1.5625,5.04296 1.0351,1.17188 2.4648,1.75782 4.2773,1.75782"
       id="path132" />
    <path
       fill-rule="nonzero"
       fill="#052038"
       fill-opacity="1"
       d="m 1201.7594,166.26944 c -2.9219,0 -5.2461,0.94922 -6.9844,2.85156 -1.7344,1.90235 -2.7578,4.53516 -3.0664,7.89453 h 19.0039 c 0,-3.47265 -0.7734,-6.1289 -2.3203,-7.97656 -1.5508,-1.84765 -3.7617,-2.76953 -6.6328,-2.76953 m 1.4922,33.06641 c -5.375,0 -9.6133,-1.63672 -12.7227,-4.91016 -3.1055,-3.26953 -4.6562,-7.8125 -4.6562,-13.62891 0,-5.85937 1.4414,-10.51562 4.3281,-13.96484 2.8828,-3.44922 6.7578,-5.17187 11.6211,-5.17187 4.5586,0 8.1601,1.49609 10.8125,4.49218 2.6562,2.9961 3.9805,6.94922 3.9805,11.85938 v 3.48047 h -25.0391 c 0.1094,4.26953 1.1875,7.50781 3.2344,9.71875 2.0429,2.21093 4.9257,3.3164 8.6367,3.3164 3.914,0 7.7851,-0.82031 11.6094,-2.45312 v 4.90625 c -1.9454,0.83984 -3.7852,1.4414 -5.5235,1.80859 -1.7344,0.36328 -3.8281,0.54688 -6.2812,0.54688"
       id="path134" />
    <g
       clip-path="url(#clip-0)"
       id="g138"
       transform="translate(452.67735,60.175693)">
      <path
         fill-rule="nonzero"
         fill="#052038"
         fill-opacity="1"
         d="m 785.06641,134.61719 c 0.97265,0 1.91015,-0.0742 2.8164,-0.21485 0.90625,-0.14453 1.625,-0.29687 2.15625,-0.44922 v 4.21094 c -0.59765,0.28906 -1.47656,0.52344 -2.63672,0.71485 -1.16015,0.1875 -2.20312,0.28125 -3.13281,0.28125 -7.03125,0 -10.54687,-3.70313 -10.54687,-11.10938 v -21.625 h -5.20704 v -2.65625 l 5.20704,-2.28515 2.32031,-7.761724 h 3.18359 v 8.421874 h 10.54688 v 4.28125 h -10.54688 v 21.39063 c 0,2.1914 0.51953,3.87109 1.5625,5.04296 1.03516,1.17188 2.46485,1.75782 4.27735,1.75782"
         id="path136" />
    </g>
    <path
       fill-rule="nonzero"
       fill="#052038"
       fill-opacity="1"
       d="m 497.18907,204.621 c -1.61328,-0.80859 -2.31641,-2.63281 -1.45703,-4.34375 0.86328,-1.72656 2.74609,-2.25781 4.35547,-1.44531 1.61718,0.80859 2.33593,2.64062 1.46875,4.36719 -0.85547,1.71093 -2.75391,2.23047 -4.36719,1.42187"
       id="path140" />
    <path
       fill-rule="nonzero"
       fill="#052038"
       fill-opacity="1"
       d="m 513.57579,207.51163 1.39062,-7.66797 2.67578,0.48437 -1.34375,7.39844 c -0.39843,2.19141 0.3711,3.41016 2.06641,3.71875 1.69141,0.30859 2.84375,-0.5625 3.24219,-2.75781 l 1.34375,-7.39453 2.67187,0.48437 -1.39062,7.66797 c -0.64453,3.53125 -3.08594,4.98828 -6.30469,4.40234 -3.19531,-0.57812 -4.99609,-2.80859 -4.35156,-6.33593"
       id="path142" />
    <path
       fill-rule="nonzero"
       fill="#052038"
       fill-opacity="1"
       d="m 531.82969,214.78897 h -2.71875 l -0.004,-12.71094 h 2.71875 z m 0,0"
       id="path144" />
    <path
       fill-rule="nonzero"
       fill="#052038"
       fill-opacity="1"
       d="m 535.31016,201.76944 10.95703,-1.90625 0.41016,2.34375 -4.14063,0.71875 1.82422,10.49609 -2.69531,0.47266 -1.82812,-10.5 -4.11719,0.71875 z m 0,0"
       id="path146" />
    <path
       fill-rule="nonzero"
       fill="#052038"
       fill-opacity="1"
       d="m 562.91173,204.63663 c -1.61719,0.80468 -3.4961,0.26953 -4.34766,-1.44141 -0.86328,-1.72656 -0.15625,-3.55078 1.45703,-4.35547 1.61719,-0.80469 3.51563,-0.28125 4.375,1.44922 0.85156,1.70703 0.12891,3.53906 -1.48437,4.34766"
       id="path148" />
    <path
       fill-rule="nonzero"
       fill="#052038"
       fill-opacity="1"
       d="m 556.49766,114.09366 h 14.55469 c -0.84375,-1.44531 -1.49219,-2.48828 -2.48437,-3.83203 h -10.05079 c -0.5625,-1.10547 -1.53906,-2.67188 -1.53906,-2.67188 h 9.48438 c -1.33985,-1.60546 -2.78907,-3.11718 -4.33594,-4.53125 h -11.24219 l -11.76172,7.31641 10.22266,8.16406 z m 0,0"
       id="path150" />
    <path
       fill-rule="nonzero"
       fill="#052038"
       fill-opacity="1"
       d="m 509.19297,133.02335 h -7.04687 l -1.32422,-2.20703 h -7.78906 c 2.58984,-3.5586 6.95312,-6.50782 10.72265,-6.50782 h 5.4375 z m 6.53516,-8.71485 c 1.82031,0 3.30078,1.47657 3.30078,3.30079 0,1.82031 -1.48047,3.30078 -3.30078,3.30078 -1.82422,0 -3.30078,-1.48047 -3.30078,-3.30078 0,-1.82422 1.47656,-3.30079 3.30078,-3.30079 m -25.8125,4.41797 c -1.01953,1.23438 -2.56641,2.96094 -2.56641,4.1836 0,0.66797 0.54297,1.27734 1.26954,1.27343 h 10.14062 l 1.67969,2.78907 h 51.30469 l 2.57812,-3.83594 h 22.96094 c -0.16016,-1.53125 -0.39063,-3.04297 -0.69141,-4.52734 h -12.14843 c -0.14063,-0.89063 -0.29688,-1.90235 -0.46094,-2.67188 h 11.98828 c -0.47656,-1.82812 -1.0625,-3.60937 -1.75,-5.34375 H 547.63047 L 525.66954,103.0585 h -27.48047 c -1.54688,1.41407 -3,2.92579 -4.33594,4.53125 h 9.50391 c -0.41797,0.66797 -1.14063,1.91797 -1.53907,2.67188 h -10.05078 c -0.99218,1.34375 -1.65625,2.38281 -2.5039,3.83203 h 26.77734 l 5.94141,6.5 h -16.66016 c -6.16406,0 -10.57031,2.53906 -15.40625,8.13281"
       id="path152" />
    <path
       fill-rule="nonzero"
       fill="#052038"
       fill-opacity="1"
       d="m 542.14219,164.60147 c 0,1.82031 -1.47656,3.29688 -3.29687,3.29688 -1.82422,0 -3.30078,-1.47657 -3.30078,-3.29688 0,-1.82422 1.47656,-3.30469 3.30078,-3.30469 1.82031,0 3.29687,1.48047 3.29687,3.30469 m 3.23438,-3.30469 h 5.35547 c 3.42969,0 7.35547,2.72266 9.74609,5.9961 h -7.17187 l -1.22266,2.03906 h -6.70703 z m 31.62891,-16.07031 c 0.24609,-1.60156 0.41015,-3.23437 0.48828,-4.88672 H 539.2711 L 511.0836,157.871 h -23.94922 c 0.78125,1.6836 1.58984,3.19922 2.55469,4.76953 h 10.59375 c 0.44531,1.0625 1.28906,2.67969 1.28906,2.67969 h -10.12109 c 1.11328,1.58594 2.21875,2.98047 3.51562,4.41016 l 11.86719,-0.004 2.48437,3.2461 h 44.60938 l 1.31641,-2.57032 h 9.10547 c 0.66796,0 1.16796,-0.55859 1.16796,-1.17578 0,-1.125 -1.45312,-2.99219 -2.39453,-4.1289 -3.5,-4.23047 -7.6914,-7.22657 -14.03515,-7.22657 h -9.45704 l 6.95704,-6.38272 h 29.01953 c 0.37109,-1.26172 0.64062,-2.32812 0.91015,-3.59375 h -12.1289 c 0.15234,-1.01562 0.27344,-1.86328 0.35937,-2.66797 z m 0,0"
       id="path154" />
    <path
       fill-rule="nonzero"
       fill="#052038"
       fill-opacity="1"
       d="m 482.43907,180.43741 1.54687,1.47266 -1.5039,10.48437 5.94922,-6.26562 1.88671,1.78906 -8.93359,9.41015 -1.83984,-1.74609 1.49218,-9.89062 -5.64453,5.94531 -1.88672,-1.78907 z m 0,0"
       id="path156" />
    <path
       fill-rule="nonzero"
       fill="#052038"
       fill-opacity="1"
       d="m 468.29454,179.33975 c 1.13672,1.70703 3.33593,1.83985 5.44531,0.42969 2.10547,-1.40625 2.82812,-3.48828 1.6875,-5.19531 -1.14844,-1.71875 -3.35938,-1.8711 -5.46875,-0.46094 -2.10547,1.40625 -2.81641,3.50391 -1.66406,5.22656 m 9.13672,-6.10156 c 2.00781,3.00391 1.04687,6.66797 -2.16797,8.81641 -3.23047,2.16015 -6.96485,1.6289 -8.97266,-1.375 -2.00781,-3.00391 -1.07812,-6.67188 2.15625,-8.83203 3.21484,-2.14844 6.97656,-1.61329 8.98438,1.39062"
       id="path158" />
    <path
       fill-rule="nonzero"
       fill="#052038"
       fill-opacity="1"
       d="m 465.20469,165.95303 -0.91797,-2.3164 c -0.5,-1.25781 -1.42187,-1.64063 -2.42578,-1.2461 -1.01953,0.40625 -1.43359,1.32032 -0.93359,2.57422 l 0.91797,2.32032 z m 2.0625,-0.8164 4.5,-1.78125 0.98828,2.49609 -12.0625,4.77735 -1.96875,-4.97266 c -1.0039,-2.53125 -0.3164,-4.76172 2.15625,-5.73828 1.92579,-0.76563 3.56641,-0.1875 4.64844,1.33984 l 3.41406,-5.03125 1.11719,2.82813 -3.3125,4.76562 z m 0,0"
       id="path160" />
    <path
       fill-rule="nonzero"
       fill="#052038"
       fill-opacity="1"
       d="m 464.13438,146.18741 -1.94141,0.32031 0.36329,2.16797 -2.19141,0.36328 -0.76172,-4.58593 5.35938,-0.89063 c 1.48046,1.03906 2.30078,2.64063 2.58203,4.32813 0.64843,3.8789 -1.66016,6.76953 -5.53907,7.41406 -3.96093,0.65625 -7.08593,-1.64844 -7.72656,-5.48828 -0.24219,-1.45703 -0.0625,-2.82032 0.45313,-3.84375 l 2.67187,-0.44532 c -0.66406,1.17969 -0.92969,2.40625 -0.68359,3.88672 0.38281,2.29297 2.3164,3.6211 4.83984,3.19922 2.48047,-0.41015 3.97656,-2.11719 3.59766,-4.39062 -0.13672,-0.83203 -0.47266,-1.55078 -1.02344,-2.03516"
       id="path162" />
    <path
       fill-rule="nonzero"
       fill="#052038"
       fill-opacity="1"
       d="m 453.82188,130.6796 2.36719,0.0859 -0.22266,6.14453 2.82813,0.10547 0.20312,-5.57813 2.30469,0.0859 -0.20313,5.57422 3.08204,0.11328 0.22265,-6.14843 2.39063,0.0859 -0.32032,8.80859 -12.96875,-0.46875 z m 0,0"
       id="path164" />
    <path
       fill-rule="nonzero"
       fill="#052038"
       fill-opacity="1"
       d="m 463.71251,127.51554 c 1.10546,-0.94141 1.98828,-2.25782 2.32031,-3.72266 0.29297,-1.27344 0.12109,-2.33203 -0.86719,-2.55859 -0.82422,-0.1875 -1.25781,0.27734 -1.82031,1.14453 l -1.04297,1.71484 c -1.04297,1.73438 -2.29297,2.75391 -4.39453,2.27344 -2.35156,-0.53516 -3.16797,-2.84375 -2.60547,-5.32031 0.35156,-1.54297 1.00781,-2.71485 1.86328,-3.60547 l 2.57422,0.58593 c -1.05078,0.91016 -1.83984,1.98829 -2.17188,3.44922 -0.25781,1.13672 -0.0625,2.08985 0.80079,2.28907 0.78515,0.17578 1.21093,-0.26954 1.69921,-1.08985 l 1.13282,-1.82422 c 1.20312,-1.95703 2.57812,-2.66406 4.45312,-2.23437 2.49219,0.5664 3.26563,2.97265 2.65625,5.65234 -0.38281,1.69141 -1.21484,3.0625 -2,3.83594 z m 0,0"
       id="path166" />
    <path
       fill-rule="nonzero"
       fill="#052038"
       fill-opacity="1"
       d="m 469.66954,104.90225 1.59375,-2.74218 -4.52344,-0.79688 z m -5.05078,-6.363276 13.71093,2.234376 -1.3789,2.375 -3.28907,-0.57031 -2.44531,4.20312 2.12891,2.55859 -1.35938,2.33594 -8.71875,-10.8164 z m 0,0"
       id="path168" />
    <path
       fill-rule="nonzero"
       fill="#052038"
       fill-opacity="1"
       d="m 476.59141,92.050693 1.67969,-1.84375 c 0.91406,-1 0.85156,-2 0.0547,-2.726562 -0.80859,-0.738282 -1.80859,-0.707032 -2.72266,0.289062 l -1.67968,1.84375 z m 1.64063,1.496094 3.57422,3.261718 -1.8125,1.980469 -9.58204,-8.746093 3.60547,-3.949219 c 1.83594,-2.015625 4.14063,-2.375 6.10547,-0.578125 1.53125,1.394531 1.73047,3.121094 0.83203,4.761718 l 6.02344,0.863282 -2.05469,2.25 -5.73828,-0.890625 z m 0,0"
       id="path170" />
    <path
       fill-rule="nonzero"
       fill="#052038"
       fill-opacity="1"
       d="m 486.84532,81.867099 0.57422,-7.292968 2.64062,-1.90625 -0.73437,8.195312 8.48047,2.21875 -2.69141,1.941406 -7.37891,-1.921875 3.4375,4.765625 -2.19531,1.582032 -7.59375,-10.523438 2.19531,-1.582031 z m 0,0"
       id="path172" />
    <path
       fill-rule="nonzero"
       fill="#052038"
       fill-opacity="1"
       d="m 492.53282,71.238193 10.01953,-4.722656 1.00781,2.140625 -3.78515,1.785156 4.52343,9.597656 -2.46484,1.160157 -4.52344,-9.59375 -3.76953,1.773437 z m 0,0"
       id="path174" />
    <path
       fill-rule="nonzero"
       fill="#052038"
       fill-opacity="1"
       d="m 513.01329,76.906162 -2.58985,0.78125 -3.75,-12.425781 2.58985,-0.78125 z m 0,0"
       id="path176" />
    <path
       fill-rule="nonzero"
       fill="#052038"
       fill-opacity="1"
       d="m 515.92344,72.398349 c 1.27344,0.6875 2.82032,1.039063 4.3086,0.824219 1.29687,-0.1875 2.21875,-0.730469 2.07422,-1.734375 -0.1211,-0.835938 -0.71094,-1.070312 -1.72266,-1.285156 l -1.97656,-0.355469 c -1.9961,-0.347656 -3.39063,-1.148437 -3.70313,-3.285156 -0.34765,-2.382813 1.51563,-3.980469 4.02344,-4.34375 1.57031,-0.226563 2.90234,-0.03516 4.03906,0.4375 l 0.37891,2.617187 c -1.22656,-0.65625 -2.51563,-1.003906 -4,-0.785156 -1.15235,0.167969 -1.97266,0.691406 -1.84375,1.570312 0.11328,0.792969 0.68359,1.03125 1.625,1.195313 l 2.10937,0.398437 c 2.26172,0.417969 3.41407,1.445313 3.69141,3.347657 0.36719,2.53125 -1.60156,4.121093 -4.32031,4.519531 -1.71485,0.246094 -3.29688,-0.03516 -4.30078,-0.488281 z m 0,0"
       id="path178" />
    <path
       fill-rule="nonzero"
       fill="#052038"
       fill-opacity="1"
       d="m 531.50547,67.179599 5.01172,-5.335937 3.25391,0.167969 -5.69922,5.933593 5.23047,7.035157 -3.3125,-0.167969 -4.5625,-6.113281 -0.29297,5.867187 -2.70312,-0.136719 0.65625,-12.960937 2.70312,0.136719 z m 0,0"
       id="path180" />
    <path
       fill-rule="nonzero"
       fill="#052038"
       fill-opacity="1"
       d="m 553.34532,65.074131 -0.58203,2.292968 -5.96485,-1.503906 -0.69531,2.746094 5.41016,1.367187 -0.5625,2.234375 -5.41407,-1.367187 -0.7539,2.992187 5.96484,1.507813 -0.58594,2.316406 -8.54687,-2.160156 3.17969,-12.585938 z m 0,0"
       id="path182" />
    <path
       fill-rule="nonzero"
       fill="#052038"
       fill-opacity="1"
       d="m 561.36485,76.652255 4.05469,-6.609374 2.30469,1.414062 -3.91016,6.375 c -1.16016,1.890625 -0.88281,3.300781 0.57422,4.195312 1.46094,0.894532 2.84375,0.503907 4,-1.390624 l 3.91015,-6.375 2.3086,1.414062 -4.05469,6.609375 c -1.86719,3.046875 -4.65625,3.515625 -7.42969,1.8125 -2.75781,-1.6875 -3.625,-4.398437 -1.75781,-7.445313"
       id="path184" />
    <path
       fill-rule="nonzero"
       fill="#052038"
       fill-opacity="1"
       d="m 578.11094,96.187412 -1.53515,-1.480469 1.59375,-10.472656 -6.00391,6.214844 -1.86719,-1.804688 9.01172,-9.332031 1.82422,1.757812 -1.57422,9.878907 5.69141,-5.902344 1.87109,1.808594 z m 0,0"
       id="path186" />
    <path
       fill-rule="nonzero"
       fill="#052038"
       fill-opacity="1"
       d="m 581.95469,101.41788 -1.60937,-2.171875 10.42578,-7.730468 1.60937,2.171875 z m 0,0"
       id="path188" />
    <path
       fill-rule="nonzero"
       fill="#052038"
       fill-opacity="1"
       d="m 585.81797,107.58975 9.25391,-10.316401 1.32031,2.53125 -6.76172,7.320311 9.8711,-1.36328 1.29297,2.47266 -13.76563,1.67968 z m 0,0"
       id="path190" />
    <path
       fill-rule="nonzero"
       fill="#052038"
       fill-opacity="1"
       d="m 604.82188,121.09757 -2.27344,0.66015 -1.71875,-5.90234 -2.72265,0.79297 1.5625,5.35547 -2.21094,0.64453 -1.55859,-5.35547 -2.96485,0.86328 1.72266,5.90625 -2.29297,0.66797 -2.46875,-8.46094 12.45703,-3.63281 z m 0,0"
       id="path192" />
    <path
       fill-rule="nonzero"
       fill="#052038"
       fill-opacity="1"
       d="m 600.29063,130.58194 0.19141,2.48438 c 0.10547,1.35156 0.875,1.98828 1.95312,1.90625 1.09375,-0.0859 1.75781,-0.83594 1.65235,-2.1836 l -0.19532,-2.48437 z m -2.21094,0.17188 -4.82422,0.375 -0.20703,-2.67578 12.9336,-1.00391 0.41406,5.32812 c 0.21094,2.71875 -1.10156,4.64454 -3.75391,4.85157 -2.0664,0.16015 -3.46093,-0.87891 -4.04297,-2.65625 l -4.75,3.80078 -0.23437,-3.03125 4.57422,-3.57813 z m 0,0"
       id="path194" />
    <path
       fill-rule="nonzero"
       fill="#052038"
       fill-opacity="1"
       d="m 597.18126,142.14835 c -1.00391,1.04687 -1.75391,2.4414 -1.94141,3.93359 -0.16797,1.30078 0.10937,2.33594 1.11328,2.46485 0.83984,0.10546 1.22266,-0.40235 1.70313,-1.32422 l 0.86718,-1.80469 c 0.8711,-1.83203 2.01563,-2.96484 4.15235,-2.69531 2.39453,0.30468 3.43359,2.52343 3.11718,5.03906 -0.19921,1.57422 -0.73828,2.80859 -1.5,3.77734 l -2.62109,-0.33203 c 0.95703,-1.00781 1.63281,-2.16015 1.82422,-3.64844 0.14453,-1.15234 -0.14063,-2.08593 -1.02344,-2.19531 -0.79687,-0.10547 -1.17578,0.38281 -1.58594,1.2461 l -0.94531,1.92968 c -1.00781,2.06641 -2.30859,2.90235 -4.21484,2.66407 -2.53906,-0.32422 -3.54688,-2.64454 -3.19922,-5.3711 0.21484,-1.71875 0.91016,-3.16797 1.61328,-4.01562 z m 0,0"
       id="path196" />
    <path
       fill-rule="nonzero"
       fill="#052038"
       fill-opacity="1"
       d="m 590.8961,156.56241 0.73047,-2.60937 12.5,3.49218 -0.73047,2.60547 z m 0,0"
       id="path198" />
    <path
       fill-rule="nonzero"
       fill="#052038"
       fill-opacity="1"
       d="m 602.10313,164.53116 -4.55469,10.09766 -2.16015,-0.97657 1.72265,-3.8164 -9.67187,-4.36328 1.125,-2.48438 9.66797,4.36328 1.71484,-3.79687 z m 0,0"
       id="path200" />
    <path
       fill-rule="nonzero"
       fill="#052038"
       fill-opacity="1"
       d="m 589.95079,185.94132 -1.9336,-1.36329 3.54688,-5.02343 -2.3125,-1.63282 -3.21875,4.5586 -1.87891,-1.33203 3.21485,-4.55469 -2.51954,-1.77734 -3.54687,5.01953 -1.94922,-1.375 5.08203,-7.19922 10.59766,7.48437 z m 0,0"
       id="path202" />
    <path
       fill-rule="nonzero"
       fill="#052038"
       fill-opacity="1"
       d="m 586.72813,189.8046 -8.03515,7.61718 -1.625,-1.71875 3.03515,-2.8789 -7.30078,-7.69141 1.97656,-1.875 7.30078,7.69141 3.01953,-2.86328 z m 0,0"
       id="path204" />
    <path
       fill-rule="nonzero"
       fill="#052038"
       fill-opacity="1"
       d="m 509.78282,155.496 13.01953,-8.02343 -11.47266,-7.13282 h -28.46875 c 0.0859,1.57422 0.23438,3.35938 0.47657,4.88672 h 12.25 c 0.13281,1.1875 0.35937,2.66797 0.35937,2.66797 h -12.13281 c 0.27344,1.25781 0.54687,2.375 0.91797,3.59375 h 18.60937 z m 0,0"
       id="path206" />
  </g>
</svg>
